<?xml version="1.0" encoding="UTF-8" standalone="no"?>
<svg width="40px" height="41px" viewBox="0 0 40 41" version="1.1" xmlns="http://www.w3.org/2000/svg" xmlns:xlink="http://www.w3.org/1999/xlink">
    <!-- Generator: Sketch 44.1 (41455) - http://www.bohemiancoding.com/sketch -->
    <title>Group</title>
    <desc>Created with Sketch.</desc>
    <defs></defs>
    <g id="Web-App" stroke="none" stroke-width="1" fill="none" fill-rule="evenodd">
        <g id="Dashboard" transform="translate(-1332.000000, -61.000000)" fill="#5AD2F4">
            <g id="Group" transform="translate(1332.000000, 61.000000)">
                <g id="Profile">
                    <path d="M13.3841445,17.862 C13.3901445,17.866 13.3951445,17.869 13.4011445,17.873 C13.7011445,18.066 13.9851445,18.249 14.0961445,18.643 C14.3761445,19.653 16.2551445,23.407 18.7591445,23.407 C21.2641445,23.407 23.1421445,19.653 23.4231445,18.645 C23.5311445,18.251 23.8291445,18.058 24.1171445,17.873 C24.1231445,17.869 24.1291445,17.866 24.1341445,17.862 C24.7721445,16.63 24.6421445,16.147 24.6081445,16.061 C24.5761445,15.98 24.5191445,15.951 24.4871445,15.941 C24.0251445,15.853 23.7401445,15.439 23.7641445,14.962 C23.7651445,14.946 23.8371445,13.429 23.4841445,12.049 C23.4691445,11.991 23.4591445,11.932 23.4561445,11.873 C23.4291445,11.579 23.0641445,8.91 18.7591445,8.91 C14.3331445,8.91 14.0711445,11.758 14.0621445,11.88 C14.0581445,11.936 14.0491445,11.993 14.0351445,12.048 C13.6791445,13.44 13.7541445,14.945 13.7551445,14.961 C13.7801445,15.439 13.4531445,15.863 12.9901445,15.951 C13.0001445,15.951 12.9431445,15.98 12.9111445,16.061 C12.8771445,16.148 12.7461445,16.63 13.3841445,17.862 M18.7591445,25.318 C15.1451445,25.318 12.9471445,20.976 12.3971445,19.487 C12.1701445,19.341 11.9731445,19.215 11.8391445,18.971 C10.9951445,17.424 10.7871445,16.167 11.2181445,15.232 C11.3811445,14.881 11.6181445,14.616 11.8711445,14.426 C11.8801445,13.765 11.9401445,12.681 12.2051445,11.618 C12.3151445,10.885 13.1631445,7 18.7591445,7 C24.3761445,7 25.2071445,10.878 25.3141445,11.621 C25.5791445,12.683 25.6391445,13.765 25.6481445,14.426 C25.9001445,14.616 26.1371445,14.881 26.3001445,15.232 C26.7321445,16.167 26.5241445,17.424 25.6811445,18.967 C25.5471445,19.214 25.3501445,19.341 25.1221445,19.487 C24.5691445,20.981 22.3711445,25.318 18.7591445,25.318" id="Fill-1"></path>
                    <path d="M5.939,33.9323782 C5.42,33.9323782 5,33.5033782 5,32.9763782 C5,28.6053782 7.398,25.5113782 11.936,24.0293782 C13.956,23.3683782 15.046,22.2863782 15.057,22.2763782 C15.424,21.9063782 16.018,21.9083782 16.383,22.2793782 C16.748,22.6513782 16.751,23.2513782 16.387,23.6243782 C16.331,23.6823782 14.992,25.0363782 12.51,25.8473782 C8.72,27.0863782 6.877,29.4183782 6.877,32.9763782 C6.877,33.5033782 6.457,33.9323782 5.939,33.9323782" id="Fill-3"></path>
                    <path d="M31.7097582,34.688217 C31.2107582,34.688217 30.7957582,34.051217 30.7727582,33.539217 C30.5417582,28.499217 27.7997582,26.814217 25.1487582,25.948217 C22.6667582,25.136217 21.3277582,23.722217 21.2727582,23.665217 C20.9067582,23.291217 20.9097582,22.656217 21.2777582,22.285217 C21.6457582,21.914217 22.2377582,21.900217 22.6027582,22.272217 C22.6317582,22.301217 23.7207582,23.362217 25.7237582,24.016217 C28.5577582,24.942217 32.3587582,27.139217 32.6477582,33.454217 C32.6727582,33.981217 32.2717582,33.733217 31.7537582,34.688217 L31.7097582,34.688217 Z" id="Fill-5"></path>
                    <g id="Group-9" transform="translate(0.000000, 0.124600)">
                        <path d="M19.713,1.911 C9.879,1.911 1.877,10.054 1.877,20.063 C1.877,30.072 9.879,38.214 19.713,38.214 C29.548,38.214 37.549,30.072 37.549,20.063 C37.549,10.054 29.548,1.911 19.713,1.911 M19.713,40.125 C8.843,40.125 0,31.125 0,20.063 C0,9 8.843,0 19.713,0 C30.584,0 39.427,9 39.427,20.063 C39.427,31.125 30.584,40.125 19.713,40.125" id="Fill-7"></path>
                    </g>
                </g>
            </g>
        </g>
    </g>
</svg>