<?xml version="1.0" encoding="UTF-8" standalone="no"?>
<svg width="29px" height="30px" viewBox="0 0 29 30" version="1.1" xmlns="http://www.w3.org/2000/svg" xmlns:xlink="http://www.w3.org/1999/xlink">
    <!-- Generator: Sketch 44.1 (41455) - http://www.bohemiancoding.com/sketch -->
    <title>All Items</title>
    <desc>Created with Sketch.</desc>
    <defs></defs>
    <g id="Symbols" stroke="none" stroke-width="1" fill="none" fill-rule="evenodd">
        <g id="Tool-Bar" transform="translate(0.000000, -85.000000)" fill="#FFFFFF">
            <g id="All-Items" transform="translate(0.000000, 85.000000)">
                <g id="Group-3" transform="translate(0.000000, 0.631066)">
                    <path d="M27.5362,5.13438089 L1.25153333,5.13438089 L1.25153333,1.9483657 C1.25153333,1.59681 1.53286667,1.31062899 1.87753333,1.31062899 L26.9108667,1.31062899 C27.2555333,1.31062899 27.5362,1.59681 27.5362,1.9483657 L27.5362,5.13438089 Z M27.5362,27.4404897 C27.5362,27.7913784 27.2555333,28.0775594 26.9108667,28.0775594 L1.87753333,28.0775594 C1.53286667,28.0775594 1.25153333,27.7913784 1.25153333,27.4404897 L1.25153333,6.40918722 L27.5362,6.40918722 L27.5362,27.4404897 Z M26.9108667,0.0358226582 L1.87753333,0.0358226582 C0.8422,0.0358226582 0.0002,0.893698608 0.0002,1.9483657 L0.0002,27.4404897 C0.0002,28.4944897 0.8422,29.3516986 1.87753333,29.3516986 L26.9108667,29.3516986 C27.9455333,29.3516986 28.7875333,28.4944897 28.7875333,27.4404897 L28.7875333,1.9483657 C28.7875333,0.893698608 27.9455333,0.0358226582 26.9108667,0.0358226582 L26.9108667,0.0358226582 Z" id="Fill-1"></path>
                </g>
                <path d="M3.12926667,4.1723057 C2.9566,4.1723057 2.81593333,4.02954873 2.81593333,3.85343734 C2.81593333,3.67799304 2.9566,3.53456899 3.12926667,3.53456899 C3.30193333,3.53456899 3.44193333,3.67799304 3.44193333,3.85343734 C3.44193333,4.02954873 3.30193333,4.1723057 3.12926667,4.1723057 M3.12926667,2.89749937 C2.61126667,2.89749937 2.1906,3.32643734 2.1906,3.85343734 C2.1906,4.38043734 2.61126667,4.81004241 3.12926667,4.81004241 C3.6466,4.81004241 4.06793333,4.38043734 4.06793333,3.85343734 C4.06793333,3.32643734 3.6466,2.89749937 3.12926667,2.89749937" id="Fill-4"></path>
                <path d="M5.63253333,4.1723057 C5.45986667,4.1723057 5.31986667,4.02954873 5.31986667,3.85343734 C5.31986667,3.67799304 5.45986667,3.53456899 5.63253333,3.53456899 C5.8052,3.53456899 5.9452,3.67799304 5.9452,3.85343734 C5.9452,4.02954873 5.8052,4.1723057 5.63253333,4.1723057 M5.63253333,2.89749937 C5.11453333,2.89749937 4.69386667,3.32643734 4.69386667,3.85343734 C4.69386667,4.38043734 5.11453333,4.81004241 5.63253333,4.81004241 C6.14986667,4.81004241 6.5712,4.38043734 6.5712,3.85343734 C6.5712,3.32643734 6.14986667,2.89749937 5.63253333,2.89749937" id="Fill-6"></path>
                <path d="M8.1358,4.1723057 C7.96313333,4.1723057 7.82313333,4.02954873 7.82313333,3.85343734 C7.82313333,3.67799304 7.96313333,3.53456899 8.1358,3.53456899 C8.30846667,3.53456899 8.44846667,3.67799304 8.44846667,3.85343734 C8.44846667,4.02954873 8.30846667,4.1723057 8.1358,4.1723057 M8.1358,2.89749937 C7.61846667,2.89749937 7.19713333,3.32643734 7.19713333,3.85343734 C7.19713333,4.38043734 7.61846667,4.81004241 8.1358,4.81004241 C8.65313333,4.81004241 9.07446667,4.38043734 9.07446667,3.85343734 C9.07446667,3.32643734 8.65313333,2.89749937 8.1358,2.89749937" id="Fill-8"></path>
                <path d="M3.75466667,15.9620962 L8.13533333,15.9620962 L8.13533333,9.58939873 L3.75466667,9.58939873 L3.75466667,15.9620962 Z M3.12933333,17.2369025 L8.76133333,17.2369025 C9.10733333,17.2369025 9.38733333,16.9513886 9.38733333,16.5998329 L9.38733333,8.95232911 C9.38733333,8.60010633 9.10733333,8.31459241 8.76133333,8.31459241 L3.12933333,8.31459241 C2.78333333,8.31459241 2.50333333,8.60010633 2.50333333,8.95232911 L2.50333333,16.5998329 C2.50333333,16.9513886 2.78333333,17.2369025 3.12933333,17.2369025 L3.12933333,17.2369025 Z" id="Fill-10"></path>
                <path d="M3.75466667,26.1592127 L8.13533333,26.1592127 L8.13533333,19.7858481 L3.75466667,19.7858481 L3.75466667,26.1592127 Z M3.12933333,27.434019 L8.76133333,27.434019 C9.10733333,27.434019 9.38733333,27.1485051 9.38733333,26.7962823 L9.38733333,19.1487785 C9.38733333,18.7972228 9.10733333,18.5117089 8.76133333,18.5117089 L3.12933333,18.5117089 C2.78333333,18.5117089 2.50333333,18.7972228 2.50333333,19.1487785 L2.50333333,26.7962823 C2.50333333,27.1485051 2.78333333,27.434019 3.12933333,27.434019 L3.12933333,27.434019 Z" id="Fill-12"></path>
                <path d="M11.8906667,15.9620962 L16.2713333,15.9620962 L16.2713333,9.58939873 L11.8906667,9.58939873 L11.8906667,15.9620962 Z M11.2653333,17.2369025 L16.8973333,17.2369025 C17.2426667,17.2369025 17.5233333,16.9513886 17.5233333,16.5998329 L17.5233333,8.95232911 C17.5233333,8.60010633 17.2426667,8.31459241 16.8973333,8.31459241 L11.2653333,8.31459241 C10.9193333,8.31459241 10.6393333,8.60010633 10.6393333,8.95232911 L10.6393333,16.5998329 C10.6393333,16.9513886 10.9193333,17.2369025 11.2653333,17.2369025 L11.2653333,17.2369025 Z" id="Fill-13"></path>
                <path d="M11.8906667,26.1592127 L16.2713333,26.1592127 L16.2713333,19.7858481 L11.8906667,19.7858481 L11.8906667,26.1592127 Z M11.2653333,27.434019 L16.8973333,27.434019 C17.2426667,27.434019 17.5233333,27.1485051 17.5233333,26.7962823 L17.5233333,19.1487785 C17.5233333,18.7972228 17.2426667,18.5117089 16.8973333,18.5117089 L11.2653333,18.5117089 C10.9193333,18.5117089 10.6393333,18.7972228 10.6393333,19.1487785 L10.6393333,26.7962823 C10.6393333,27.1485051 10.9193333,27.434019 11.2653333,27.434019 L11.2653333,27.434019 Z" id="Fill-14"></path>
                <path d="M20.0266667,15.9620962 L24.4073333,15.9620962 L24.4073333,9.58939873 L20.0266667,9.58939873 L20.0266667,15.9620962 Z M19.4006667,17.2369025 L25.0326667,17.2369025 C25.3786667,17.2369025 25.6586667,16.9513886 25.6586667,16.5998329 L25.6586667,8.95232911 C25.6586667,8.60010633 25.3786667,8.31459241 25.0326667,8.31459241 L19.4006667,8.31459241 C19.0553333,8.31459241 18.7746667,8.60010633 18.7746667,8.95232911 L18.7746667,16.5998329 C18.7746667,16.9513886 19.0553333,17.2369025 19.4006667,17.2369025 L19.4006667,17.2369025 Z" id="Fill-15"></path>
                <path d="M20.0266667,26.1592127 L24.4073333,26.1592127 L24.4073333,19.7858481 L20.0266667,19.7858481 L20.0266667,26.1592127 Z M19.4006667,27.434019 L25.0326667,27.434019 C25.3786667,27.434019 25.6586667,27.1485051 25.6586667,26.7962823 L25.6586667,19.1487785 C25.6586667,18.7972228 25.3786667,18.5117089 25.0326667,18.5117089 L19.4006667,18.5117089 C19.0553333,18.5117089 18.7746667,18.7972228 18.7746667,19.1487785 L18.7746667,26.7962823 C18.7746667,27.1485051 19.0553333,27.434019 19.4006667,27.434019 L19.4006667,27.434019 Z" id="Fill-16"></path>
            </g>
        </g>
    </g>
</svg>