<?xml version="1.0" encoding="UTF-8" standalone="no"?>
<svg width="36px" height="44px" viewBox="0 0 36 44" version="1.1" xmlns="http://www.w3.org/2000/svg" xmlns:xlink="http://www.w3.org/1999/xlink">
    <!-- Generator: Sketch 44.1 (41455) - http://www.bohemiancoding.com/sketch -->
    <title>Files</title>
    <desc>Created with Sketch.</desc>
    <defs>
        <polygon id="path-1" points="0.0001 44 35.672 44 35.672 0.054 0.0001 0.054 0.0001 44"></polygon>
    </defs>
    <g id="Web-App" stroke="none" stroke-width="1" fill="none" fill-rule="evenodd">
        <g id="Dashboard" transform="translate(-278.000000, -353.000000)">
            <g id="Files" transform="translate(278.000000, 352.000000)">
                <g id="Group-3" transform="translate(0.000000, 0.946000)">
                    <mask id="mask-2" fill="white">
                        <use xlink:href="#path-1"></use>
                    </mask>
                    <g id="Clip-2"></g>
                    <path d="M2.8161,1.9645 C2.2981,1.9645 1.8781,2.3935 1.8781,2.9205 L1.8781,41.1335 C1.8781,41.6605 2.2981,42.0895 2.8161,42.0895 L32.8561,42.0895 C33.3731,42.0895 33.7941,41.6605 33.7941,41.1335 L33.7941,12.8695 L23.0801,1.9645 L2.8161,1.9645 Z M32.8561,44.0005 L2.8161,44.0005 C1.2631,44.0005 0.0001,42.7145 0.0001,41.1335 L0.0001,2.9205 C0.0001,1.3395 1.2631,0.0535 2.8161,0.0535 L23.4681,0.0535 C23.7171,0.0535 23.9561,0.1545 24.1321,0.3345 L35.3971,11.7975 C35.5731,11.9775 35.6721,12.2205 35.6721,12.4735 L35.6721,41.1335 C35.6721,42.7145 34.4081,44.0005 32.8561,44.0005 L32.8561,44.0005 Z" id="Fill-1" fill="#5AD2F4" mask="url(#mask-2)"></path>
                </g>
                <path d="M34.7336,14.3749 L23.4686,14.3749 C22.9496,14.3749 22.5296,13.9469 22.5296,13.4189 L22.5296,2.9109 L24.4066,2.9109 L24.4066,12.4639 L34.7336,12.4639 L34.7336,14.3749 Z" id="Fill-4" fill="#5AD2F4"></path>
                <path d="M17.8361,17.2411 L6.5711,17.2411 C6.0531,17.2411 5.6321,16.8131 5.6321,16.2851 C5.6321,15.7581 6.0531,15.3301 6.5711,15.3301 L17.8361,15.3301 C18.3541,15.3301 18.7741,15.7581 18.7741,16.2851 C18.7741,16.8131 18.3541,17.2411 17.8361,17.2411" id="Fill-6" fill="#5AD2F4"></path>
                <path d="M29.1008,22.973 L6.5708,22.973 C6.0528,22.973 5.6328,22.545 5.6328,22.017 C5.6328,21.49 6.0528,21.062 6.5708,21.062 L29.1008,21.062 C29.6198,21.062 30.0388,21.49 30.0388,22.017 C30.0388,22.545 29.6198,22.973 29.1008,22.973" id="Fill-8" fill="#5AD2F4"></path>
                <path d="M29.1008,28.7049 L6.5708,28.7049 C6.0528,28.7049 5.6328,28.2769 5.6328,27.7499 C5.6328,27.2219 6.0528,26.7939 6.5708,26.7939 L29.1008,26.7939 C29.6198,26.7939 30.0388,27.2219 30.0388,27.7499 C30.0388,28.2769 29.6198,28.7049 29.1008,28.7049" id="Fill-10" fill="#5AD2F4"></path>
                <path d="M29.1008,34.4374 L6.5708,34.4374 C6.0528,34.4374 5.6328,34.0094 5.6328,33.4814 C5.6328,32.9544 6.0528,32.5264 6.5708,32.5264 L29.1008,32.5264 C29.6198,32.5264 30.0388,32.9544 30.0388,33.4814 C30.0388,34.0094 29.6198,34.4374 29.1008,34.4374" id="Fill-12" fill="#5AD2F4"></path>
            </g>
        </g>
    </g>
</svg>