<?xml version="1.0" encoding="UTF-8" standalone="no"?>
<svg width="28px" height="29px" viewBox="0 0 28 29" version="1.1" xmlns="http://www.w3.org/2000/svg" xmlns:xlink="http://www.w3.org/1999/xlink">
    <!-- Generator: Sketch 44.1 (41455) - http://www.bohemiancoding.com/sketch -->
    <title>Images</title>
    <desc>Created with Sketch.</desc>
    <defs></defs>
    <g id="Symbols" stroke="none" stroke-width="1" fill="none" fill-rule="evenodd">
        <g id="Tool-Bar" transform="translate(0.000000, -283.000000)" fill="#FFFFFF">
            <g id="Images" transform="translate(0.000000, 283.000000)">
                <g id="Group-3" transform="translate(0.000000, 0.023548)">
                    <path d="M26.2844,9.49193709 C23.6244,9.37052696 21.0377333,11.2243662 18.6244,13.4451042 C18.0850667,11.2216978 16.1157333,9.56598392 13.7684,9.56598392 C11.1750667,9.56598392 9.03706667,11.583927 8.7864,14.1582219 C5.1744,12.6806206 2.5684,13.1829384 1.25173333,13.6692459 L1.25173333,2.55554975 C1.25173333,2.20399405 1.5324,1.91781304 1.87773333,1.91781304 L25.6590667,1.91781304 C26.0037333,1.91781304 26.2844,2.20399405 26.2844,2.55554975 L26.2844,9.49193709 Z M10.0030667,14.7165751 C10.0044,14.6985637 10.0130667,14.6825535 10.0130667,14.6638751 C10.0130667,12.5558751 11.6977333,10.8401232 13.7684,10.8401232 C15.7837333,10.8401232 17.4290667,12.4671523 17.5150667,14.4991042 C17.0350667,14.9667333 16.5624,15.4383649 16.0990667,15.9013244 C15.5037333,16.4963675 14.9177333,17.0827384 14.3477333,17.6264156 C12.7890667,16.3335978 11.3370667,15.3903346 10.0030667,14.7165751 L10.0030667,14.7165751 Z M26.2844,26.7728675 C26.2844,27.1244232 26.0037333,27.4099371 25.6590667,27.4099371 L1.87773333,27.4099371 C1.5324,27.4099371 1.25173333,27.1244232 1.25173333,26.7728675 L1.25173333,15.047451 C2.36973333,14.5191168 6.7664,13.0588599 13.4077333,18.4889611 C12.1304,19.6136725 10.9644,20.40017 10.0130667,20.40017 C9.66773333,20.40017 9.38706667,20.6850168 9.38706667,21.0372396 C9.38706667,21.3887953 9.66773333,21.6743092 10.0130667,21.6743092 C11.4724,21.6743092 13.0050667,20.5862877 14.6790667,19.0479814 C14.7490667,19.0112915 14.8170667,18.9652624 14.8717333,18.8998877 C14.8870667,18.8805422 14.8917333,18.8578611 14.9057333,18.8371814 C15.5724,18.2141206 16.2604,17.5270194 16.9757333,16.8105662 C19.8997333,13.8860497 23.1904,10.5986371 26.2844,10.7740814 L26.2844,26.7728675 Z M25.6590667,0.643673797 L1.87773333,0.643673797 C0.8424,0.643673797 -0.000266666667,1.50088266 -0.000266666667,2.55554975 L-0.000266666667,26.7728675 C-0.000266666667,27.8268675 0.8424,28.6847434 1.87773333,28.6847434 L25.6590667,28.6847434 C26.6937333,28.6847434 27.5364,27.8268675 27.5364,26.7728675 L27.5364,2.55554975 C27.5364,1.50088266 26.6937333,0.643673797 25.6590667,0.643673797 L25.6590667,0.643673797 Z" id="Fill-1"></path>
                </g>
                <path d="M13.7681333,5.76538 C13.4221333,5.76538 13.1428,6.05089392 13.1428,6.40311671 L13.1428,8.31499266 C13.1428,8.66654835 13.4221333,8.95206228 13.7681333,8.95206228 C14.1141333,8.95206228 14.3934667,8.66654835 14.3934667,8.31499266 L14.3934667,6.40311671 C14.3934667,6.05089392 14.1141333,5.76538 13.7681333,5.76538" id="Fill-4"></path>
                <path d="M18.9582,8.50151063 L17.7062,9.77631696 C17.4622,10.025141 17.4622,10.4280625 17.7062,10.6775537 C17.8288667,10.8016322 17.9888667,10.8643385 18.1488667,10.8643385 C18.3088667,10.8643385 18.4695333,10.8016322 18.5908667,10.6775537 L19.8428667,9.40274734 C20.0875333,9.15392329 20.0875333,8.75033468 19.8428667,8.50151063 C19.5988667,8.25268658 19.2022,8.25268658 18.9582,8.50151063" id="Fill-6"></path>
                <path d="M8.578,8.50151063 C8.334,8.25268658 7.938,8.25268658 7.69333333,8.50151063 C7.44866667,8.75033468 7.44866667,9.15392329 7.69333333,9.40274734 L8.94466667,10.6775537 C9.06666667,10.8016322 9.22733333,10.8643385 9.38733333,10.8643385 C9.54733333,10.8643385 9.70733333,10.8016322 9.83,10.6775537 C10.0746667,10.4280625 10.0746667,10.025141 9.83,9.77631696 L8.578,8.50151063 Z" id="Fill-8"></path>
            </g>
        </g>
    </g>
</svg>