<?xml version="1.0" encoding="UTF-8" standalone="no"?>
<svg width="42px" height="42px" viewBox="0 0 42 42" version="1.1" xmlns="http://www.w3.org/2000/svg" xmlns:xlink="http://www.w3.org/1999/xlink">
    <!-- Generator: Sketch 44.1 (41455) - http://www.bohemiancoding.com/sketch -->
    <title>Images</title>
    <desc>Created with Sketch.</desc>
    <defs>
        <polygon id="path-1" points="41.304 42.9999 41.304 0.965 0 0.965 0 42.9999 41.304 42.9999"></polygon>
    </defs>
    <g id="Web-App" stroke="none" stroke-width="1" fill="none" fill-rule="evenodd">
        <g id="Dashboard" transform="translate(-275.000000, -469.000000)">
            <g id="Images" transform="translate(275.000000, 468.000000)">
                <g id="Group-3" transform="translate(0.000000, 0.035300)">
                    <mask id="mask-2" fill="white">
                        <use xlink:href="#path-1"></use>
                    </mask>
                    <g id="Clip-2"></g>
                    <path d="M39.4266,14.2289 C35.4366,14.0469 31.5566,16.8259 27.9366,20.1549 C27.1276,16.8219 24.1736,14.3399 20.6526,14.3399 C16.7626,14.3399 13.5556,17.3649 13.1796,21.2239 C7.7616,19.0089 3.8526,19.7619 1.8776,20.4909 L1.8776,3.8309 C1.8776,3.3039 2.2986,2.8749 2.8166,2.8749 L38.4886,2.8749 C39.0056,2.8749 39.4266,3.3039 39.4266,3.8309 L39.4266,14.2289 Z M15.0046,22.0609 C15.0066,22.0339 15.0196,22.0099 15.0196,21.9819 C15.0196,18.8219 17.5466,16.2499 20.6526,16.2499 C23.6756,16.2499 26.1436,18.6889 26.2726,21.7349 C25.5526,22.4359 24.8436,23.1429 24.1486,23.8369 C23.2556,24.7289 22.3766,25.6079 21.5216,26.4229 C19.1836,24.4849 17.0056,23.0709 15.0046,22.0609 L15.0046,22.0609 Z M39.4266,40.1339 C39.4266,40.6609 39.0056,41.0889 38.4886,41.0889 L2.8166,41.0889 C2.2986,41.0889 1.8776,40.6609 1.8776,40.1339 L1.8776,22.5569 C3.5546,21.7649 10.1496,19.5759 20.1116,27.7159 C18.1956,29.4019 16.4466,30.5809 15.0196,30.5809 C14.5016,30.5809 14.0806,31.0079 14.0806,31.5359 C14.0806,32.0629 14.5016,32.4909 15.0196,32.4909 C17.2086,32.4909 19.5076,30.8599 22.0186,28.5539 C22.1236,28.4989 22.2256,28.4299 22.3076,28.3319 C22.3306,28.3029 22.3376,28.2689 22.3586,28.2379 C23.3586,27.3039 24.3906,26.2739 25.4636,25.1999 C29.8496,20.8159 34.7856,15.8879 39.4266,16.1509 L39.4266,40.1339 Z M38.4886,0.9649 L2.8166,0.9649 C1.2636,0.9649 -0.0004,2.2499 -0.0004,3.8309 L-0.0004,40.1339 C-0.0004,41.7139 1.2636,42.9999 2.8166,42.9999 L38.4886,42.9999 C40.0406,42.9999 41.3046,41.7139 41.3046,40.1339 L41.3046,3.8309 C41.3046,2.2499 40.0406,0.9649 38.4886,0.9649 L38.4886,0.9649 Z" id="Fill-1" fill="#5AD2F4" mask="url(#mask-2)"></path>
                </g>
                <path d="M20.6522,8.6426 C20.1332,8.6426 19.7142,9.0706 19.7142,9.5986 L19.7142,12.4646 C19.7142,12.9916 20.1332,13.4196 20.6522,13.4196 C21.1712,13.4196 21.5902,12.9916 21.5902,12.4646 L21.5902,9.5986 C21.5902,9.0706 21.1712,8.6426 20.6522,8.6426" id="Fill-4" fill="#5AD2F4"></path>
                <path d="M28.4373,12.7442 L26.5593,14.6552 C26.1933,15.0282 26.1933,15.6322 26.5593,16.0062 C26.7433,16.1922 26.9833,16.2862 27.2233,16.2862 C27.4633,16.2862 27.7043,16.1922 27.8863,16.0062 L29.7643,14.0952 C30.1313,13.7222 30.1313,13.1172 29.7643,12.7442 C29.3983,12.3712 28.8033,12.3712 28.4373,12.7442" id="Fill-6" fill="#5AD2F4"></path>
                <path d="M12.867,12.7442 C12.501,12.3712 11.907,12.3712 11.54,12.7442 C11.173,13.1172 11.173,13.7222 11.54,14.0952 L13.417,16.0062 C13.6,16.1922 13.841,16.2862 14.081,16.2862 C14.321,16.2862 14.561,16.1922 14.745,16.0062 C15.112,15.6322 15.112,15.0282 14.745,14.6552 L12.867,12.7442 Z" id="Fill-8" fill="#5AD2F4"></path>
            </g>
        </g>
    </g>
</svg>