<?xml version="1.0" encoding="UTF-8" standalone="no"?>
<svg width="43px" height="44px" viewBox="0 0 43 44" version="1.1" xmlns="http://www.w3.org/2000/svg" xmlns:xlink="http://www.w3.org/1999/xlink">
    <!-- Generator: Sketch 44.1 (41455) - http://www.bohemiancoding.com/sketch -->
    <title>Links</title>
    <desc>Created with Sketch.</desc>
    <defs>
        <polygon id="path-1" points="0.5857 0.67 24.5767 0.67 24.5767 25.0846 0.5857 25.0846 0.5857 0.67"></polygon>
        <polygon id="path-3" points="1.10146809e-15 24.9996 1.10146809e-15 0.5846 23.9907 0.5846 23.9907 24.9996 0 24.9996"></polygon>
    </defs>
    <g id="Web-App" stroke="none" stroke-width="1" fill="none" fill-rule="evenodd">
        <g id="Dashboard" transform="translate(-274.000000, -243.000000)">
            <g id="Links" transform="translate(274.000000, 242.000000)">
                <g id="Group-3" transform="translate(18.000000, 0.330200)">
                    <mask id="mask-2" fill="white">
                        <use xlink:href="#path-1"></use>
                    </mask>
                    <g id="Clip-2"></g>
                    <path d="M15.9007,2.5806 C15.1477,2.5806 14.4417,2.8786 13.9087,3.4206 L3.2887,14.2286 C2.7567,14.7696 2.4627,15.4896 2.4627,16.2546 C2.4627,17.0206 2.7567,17.7406 3.2887,18.2816 L7.2707,22.3346 C8.3337,23.4166 10.1897,23.4176 11.2547,22.3346 L21.8747,11.5266 C22.4057,10.9846 22.6997,10.2656 22.6997,9.4996 C22.6997,8.7346 22.4057,8.0146 21.8747,7.4736 L17.8917,3.4206 C17.3597,2.8786 16.6527,2.5806 15.9007,2.5806 M9.2627,25.0846 C8.0087,25.0846 6.8297,24.5876 5.9437,23.6856 L1.9607,19.6326 C1.0747,18.7306 0.5857,17.5316 0.5857,16.2546 C0.5857,14.9786 1.0747,13.7796 1.9607,12.8776 L12.5817,2.0696 C13.4677,1.1666 14.6467,0.6696 15.9007,0.6696 C17.1537,0.6696 18.3337,1.1666 19.2187,2.0696 L23.2017,6.1226 C24.0887,7.0236 24.5767,8.2246 24.5767,9.4996 C24.5767,10.7756 24.0887,11.9756 23.2017,12.8776 L12.5817,23.6856 C11.6947,24.5876 10.5157,25.0846 9.2627,25.0846" id="Fill-1" fill="#5AD2F4" mask="url(#mask-2)"></path>
                </g>
                <g id="Group-6" transform="translate(0.000000, 19.330200)">
                    <mask id="mask-4" fill="white">
                        <use xlink:href="#path-3"></use>
                    </mask>
                    <g id="Clip-5"></g>
                    <path d="M15.3147,2.4956 C14.5627,2.4956 13.8547,2.7936 13.3227,3.3346 L2.7027,14.1426 C2.1707,14.6846 1.8767,15.4046 1.8767,16.1696 C1.8767,16.9356 2.1707,17.6556 2.7027,18.1966 L6.6847,22.2496 C7.7497,23.3326 9.6017,23.3336 10.6677,22.2496 L21.2887,11.4416 C21.8197,10.8996 22.1137,10.1806 22.1137,9.4146 C22.1137,8.6486 21.8197,7.9296 21.2887,7.3886 L17.3057,3.3346 C16.7737,2.7936 16.0667,2.4956 15.3147,2.4956 M8.6767,24.9996 C7.4227,24.9996 6.2437,24.5036 5.3567,23.6006 L1.3757,19.5476 C0.4887,18.6456 -0.0003,17.4456 -0.0003,16.1696 C-0.0003,14.8936 0.4887,13.6946 1.3757,12.7926 L11.9957,1.9836 C12.8817,1.0816 14.0607,0.5846 15.3147,0.5846 C16.5677,0.5846 17.7467,1.0816 18.6337,1.9836 L22.6157,6.0376 C23.5027,6.9396 23.9907,8.1386 23.9907,9.4146 C23.9907,10.6906 23.5027,11.8906 22.6157,12.7926 L11.9957,23.6006 C11.1087,24.5036 9.9297,24.9996 8.6767,24.9996" id="Fill-4" fill="#5AD2F4" mask="url(#mask-4)"></path>
                </g>
                <path d="M13.323,31.7272 C13.083,31.7272 12.843,31.6332 12.659,31.4472 C12.292,31.0742 12.292,30.4692 12.659,30.0962 L28.59,13.8832 C28.956,13.5102 29.551,13.5102 29.917,13.8832 C30.284,14.2562 30.284,14.8612 29.917,15.2342 L13.987,31.4472 C13.803,31.6332 13.563,31.7272 13.323,31.7272" id="Fill-7" fill="#5AD2F4"></path>
            </g>
        </g>
    </g>
</svg>