<?xml version="1.0" encoding="UTF-8" standalone="no"?>
<svg width="29px" height="30px" viewBox="0 0 29 30" version="1.1" xmlns="http://www.w3.org/2000/svg" xmlns:xlink="http://www.w3.org/1999/xlink">
    <!-- Generator: Sketch 44.1 (41455) - http://www.bohemiancoding.com/sketch -->
    <title>Links</title>
    <desc>Created with Sketch.</desc>
    <defs></defs>
    <g id="Symbols" stroke="none" stroke-width="1" fill="none" fill-rule="evenodd">
        <g id="Tool-Bar" transform="translate(0.000000, -381.000000)" fill="#FFFFFF">
            <g id="Links" transform="translate(0.000000, 381.000000)">
                <g id="Group-3" transform="translate(12.000000, 0.220273)">
                    <path d="M10.6004667,1.72148886 C10.0984667,1.72148886 9.6278,1.92028127 9.27246667,2.28184329 L2.19246667,9.49173696 C1.8378,9.8526319 1.6418,10.3329357 1.6418,10.8432585 C1.6418,11.3542484 1.8378,11.8345522 2.19246667,12.1954471 L4.84713333,14.8991572 C5.5558,15.6209471 6.79313333,15.6216142 7.50313333,14.8991572 L14.5831333,7.68926354 C14.9371333,7.32770152 15.1331333,6.84806481 15.1331333,6.33707494 C15.1331333,5.82675215 14.9371333,5.34644835 14.5831333,4.98555342 L11.9278,2.28184329 C11.5731333,1.92028127 11.1018,1.72148886 10.6004667,1.72148886 M6.17513333,16.7336509 C5.33913333,16.7336509 4.55313333,16.4021078 3.96246667,15.8003939 L1.30713333,13.0966838 C0.716466667,12.4949699 0.390466667,11.6951306 0.390466667,10.8432585 C0.390466667,9.99205342 0.716466667,9.19221418 1.30713333,8.59050025 L8.3878,1.38060658 C8.97846667,0.77822557 9.76446667,0.446682532 10.6004667,0.446682532 C11.4358,0.446682532 12.2224667,0.77822557 12.8124667,1.38060658 L15.4678,4.08431671 C16.0591333,4.68536354 16.3844667,5.48653696 16.3844667,6.33707494 C16.3844667,7.18828 16.0591333,7.98878633 15.4678,8.59050025 L8.3878,15.8003939 C7.79646667,16.4021078 7.01046667,16.7336509 6.17513333,16.7336509" id="Fill-1"></path>
                </g>
                <g id="Group-6" transform="translate(0.000000, 12.894956)">
                    <path d="M10.2098,1.66478633 C9.70846667,1.66478633 9.23646667,1.86357873 8.8818,2.22447367 L1.8018,9.43436734 C1.44713333,9.79592937 1.25113333,10.2762332 1.25113333,10.7865559 C1.25113333,11.2975458 1.44713333,11.7778496 1.8018,12.1387446 L4.45646667,14.8424547 C5.16646667,15.5649116 6.40113333,15.5655787 7.1118,14.8424547 L14.1924667,7.63256101 C14.5464667,7.27099899 14.7424667,6.79136228 14.7424667,6.28037241 C14.7424667,5.76938253 14.5464667,5.28974582 14.1924667,4.92885089 L11.5371333,2.22447367 C11.1824667,1.86357873 10.7111333,1.66478633 10.2098,1.66478633 M5.78446667,16.6769484 C4.94846667,16.6769484 4.16246667,16.3460724 3.57113333,15.7436914 L0.917133333,13.0399813 C0.3258,12.4382673 -0.0002,11.637761 -0.0002,10.7865559 C-0.0002,9.93535089 0.3258,9.13551165 0.917133333,8.53379772 L7.99713333,1.32323696 C8.5878,0.721523038 9.3738,0.38998 10.2098,0.38998 C11.0451333,0.38998 11.8311333,0.721523038 12.4224667,1.32323696 L15.0771333,4.02761418 C15.6684667,4.6293281 15.9938,5.42916734 15.9938,6.28037241 C15.9938,7.13157747 15.6684667,7.9320838 15.0771333,8.53379772 L7.99713333,15.7436914 C7.4058,16.3460724 6.6198,16.6769484 5.78446667,16.6769484" id="Fill-4"></path>
                </g>
                <path d="M8.882,21.1648537 C8.722,21.1648537 8.562,21.1021473 8.43933333,20.9780689 C8.19466667,20.7292448 8.19466667,20.3256562 8.43933333,20.0768322 L19.06,9.26132456 C19.304,9.01250051 19.7006667,9.01250051 19.9446667,9.26132456 C20.1893333,9.51014861 20.1893333,9.91373722 19.9446667,10.1625613 L9.32466667,20.9780689 C9.202,21.1021473 9.042,21.1648537 8.882,21.1648537" id="Fill-7"></path>
            </g>
        </g>
    </g>
</svg>