<?xml version="1.0" encoding="UTF-8" standalone="no"?>
<svg width="120px" height="48px" viewBox="0 0 120 48" version="1.1" xmlns="http://www.w3.org/2000/svg" xmlns:xlink="http://www.w3.org/1999/xlink">
    <!-- Generator: Sketch 44.1 (41455) - http://www.bohemiancoding.com/sketch -->
    <title>Logo</title>
    <desc>Created with Sketch.</desc>
    <defs></defs>
    <g id="Web-App" stroke="none" stroke-width="1" fill="none" fill-rule="evenodd">
        <g id="Dashboard" transform="translate(-28.000000, -62.000000)">
            <g id="Logo" transform="translate(28.000000, 63.000000)">
                <path d="M0.0779,45.5 L73.6999,45.5" id="Fill-13" fill="#FFFFFF"></path>
                <path d="M0.0779,45.5 L73.6999,45.5" id="Stroke-15" stroke="#FFFFFF" stroke-width="3"></path>
                <g id="Group-12" transform="translate(45.000000, 0.000000)">
                    <path d="M0.4866,0.5665 L74.1076,0.5665" id="Fill-9" fill="#FFFFFF"></path>
                    <path d="M0.4866,0.5665 L74.1076,0.5665" id="Stroke-11" stroke="#FFFFFF" stroke-width="3"></path>
                </g>
                <path d="M22.3362,30.6504 C22.3362,33.7444 21.2232,36.1814 18.9962,37.9624 C16.7702,39.7444 13.6722,40.6344 9.7032,40.6344 C6.0472,40.6344 2.8132,39.9474 0.0002,38.5724 L0.0002,31.8224 C2.3132,32.8534 4.2702,33.5804 5.8712,34.0024 C7.4732,34.4234 8.9382,34.6344 10.2662,34.6344 C11.8592,34.6344 13.0822,34.3304 13.9342,33.7204 C14.7852,33.1114 15.2112,32.2054 15.2112,31.0024 C15.2112,30.3304 15.0242,29.7324 14.6492,29.2094 C14.2732,28.6854 13.7232,28.1814 12.9962,27.6974 C12.2702,27.2124 10.7892,26.4394 8.5552,25.3774 C6.4612,24.3924 4.8912,23.4474 3.8442,22.5414 C2.7972,21.6344 1.9612,20.5804 1.3362,19.3774 C0.7112,18.1734 0.3992,16.7674 0.3992,15.1584 C0.3992,12.1274 1.4262,9.7444 3.4812,8.0094 C5.5352,6.2754 8.3752,5.4084 12.0002,5.4084 C13.7812,5.4084 15.4812,5.6194 17.0982,6.0414 C18.7152,6.4634 20.4062,7.0564 22.1722,7.8224 L19.8282,13.4704 C18.0002,12.7204 16.4882,12.1974 15.2932,11.9004 C14.0982,11.6034 12.9222,11.4554 11.7662,11.4554 C10.3912,11.4554 9.3362,11.7754 8.6022,12.4164 C7.8672,13.0564 7.5002,13.8924 7.5002,14.9234 C7.5002,15.5644 7.6482,16.1234 7.9452,16.5994 C8.2422,17.0764 8.7152,17.5374 9.3632,17.9824 C10.0122,18.4274 11.5472,19.2284 13.9692,20.3844 C17.1722,21.9164 19.3672,23.4514 20.5552,24.9904 C21.7422,26.5294 22.3362,28.4164 22.3362,30.6504" id="Fill-1" fill="#FFFFFF"></path>
                <polygon id="Fill-3" fill="#FFFFFF" points="39.2112 20.0098 46.3592 5.9008 54.1882 5.9008 42.8202 26.8298 42.8202 40.1658 35.6022 40.1658 35.6022 27.0648 24.2342 5.9008 32.1092 5.9008"></polygon>
                <path d="M88.8987,40.1661 L79.6647,40.1661 L64.7577,14.2441 L64.5467,14.2441 C64.8437,18.8221 64.9927,22.0881 64.9927,24.0411 L64.9927,40.1661 L58.5007,40.1661 L58.5007,5.9001 L67.6647,5.9001 L82.5467,31.5641 L82.7117,31.5641 C82.4767,27.1111 82.3597,23.9631 82.3597,22.1191 L82.3597,5.9001 L88.8987,5.9001 L88.8987,40.1661 Z" id="Fill-5" fill="#FFFFFF"></path>
                <path d="M109.0764,11.4551 C106.3424,11.4551 104.2244,12.4821 102.7244,14.5371 C101.2244,16.5921 100.4744,19.4551 100.4744,23.1271 C100.4744,30.7671 103.3424,34.5881 109.0764,34.5881 C111.4824,34.5881 114.3964,33.9861 117.8184,32.7831 L117.8184,38.8771 C115.0064,40.0491 111.8654,40.6351 108.3964,40.6351 C103.4124,40.6351 99.5994,39.1231 96.9594,36.1001 C94.3184,33.0761 92.9984,28.7361 92.9984,23.0801 C92.9984,19.5181 93.6464,16.3961 94.9434,13.7171 C96.2404,11.0371 98.1034,8.9821 100.5334,7.5531 C102.9634,6.1231 105.8104,5.4081 109.0764,5.4081 C112.4044,5.4081 115.7484,6.2131 119.1074,7.8221 L116.7634,13.7281 C115.4824,13.1191 114.1934,12.5881 112.8964,12.1351 C111.5994,11.6821 110.3264,11.4551 109.0764,11.4551" id="Fill-7" fill="#FFFFFF"></path>
            </g>
        </g>
    </g>
</svg>