<?xml version="1.0" encoding="UTF-8" standalone="no"?>
<svg width="24px" height="30px" viewBox="0 0 24 30" version="1.1" xmlns="http://www.w3.org/2000/svg" xmlns:xlink="http://www.w3.org/1999/xlink">
    <!-- Generator: Sketch 44.1 (41455) - http://www.bohemiancoding.com/sketch -->
    <title>Notes</title>
    <desc>Created with Sketch.</desc>
    <defs></defs>
    <g id="Symbols" stroke="none" stroke-width="1" fill="none" fill-rule="evenodd">
        <g id="Tool-Bar" transform="translate(0.000000, -184.000000)" fill="#FFFFFF">
            <g id="Notes" transform="translate(0.000000, 184.000000)">
                <g id="Group-3" transform="translate(0.000000, 0.631066)">
                    <path d="M1.8774,1.31049557 C1.53206667,1.31049557 1.25206667,1.59667658 1.25206667,1.94823228 L1.25206667,27.4396892 C1.25206667,27.7912449 1.53206667,28.0774259 1.8774,28.0774259 L21.9040667,28.0774259 C22.2487333,28.0774259 22.5294,27.7912449 22.5294,27.4396892 L22.5294,8.58509684 L15.3867333,1.31049557 L1.8774,1.31049557 Z M21.9040667,29.3522323 L1.8774,29.3522323 C0.842066667,29.3522323 6.66666667e-05,28.4943563 6.66666667e-05,27.4396892 L6.66666667e-05,1.94823228 C6.66666667e-05,0.89356519 0.842066667,0.0356892405 1.8774,0.0356892405 L15.6454,0.0356892405 C15.8114,0.0356892405 15.9707333,0.10306519 16.0880667,0.223141139 L23.5980667,7.86997785 C23.7154,7.9900538 23.7814,8.15215633 23.7814,8.32092975 L23.7814,27.4396892 C23.7814,28.4943563 22.9387333,29.3522323 21.9040667,29.3522323 L21.9040667,29.3522323 Z" id="Fill-1"></path>
                </g>
                <path d="M23.1557333,9.58933203 L15.6457333,9.58933203 C15.2997333,9.58933203 15.0197333,9.3038181 15.0197333,8.95159532 L15.0197333,1.94182823 L16.2710667,1.94182823 L16.2710667,8.3145257 L23.1557333,8.3145257 L23.1557333,9.58933203 Z" id="Fill-4"></path>
                <path d="M11.8907333,11.5013414 L4.38073333,11.5013414 C4.0354,11.5013414 3.75473333,11.2158275 3.75473333,10.8636047 C3.75473333,10.512049 4.0354,10.2265351 4.38073333,10.2265351 L11.8907333,10.2265351 C12.2360667,10.2265351 12.5160667,10.512049 12.5160667,10.8636047 C12.5160667,11.2158275 12.2360667,11.5013414 11.8907333,11.5013414" id="Fill-6"></path>
                <path d="M19.4005333,15.3250266 L4.38053333,15.3250266 C4.0352,15.3250266 3.7552,15.0395127 3.7552,14.6872899 C3.7552,14.3357342 4.0352,14.0502203 4.38053333,14.0502203 L19.4005333,14.0502203 C19.7465333,14.0502203 20.0258667,14.3357342 20.0258667,14.6872899 C20.0258667,15.0395127 19.7465333,15.3250266 19.4005333,15.3250266" id="Fill-8"></path>
                <path d="M19.4005333,19.1487118 L4.38053333,19.1487118 C4.0352,19.1487118 3.7552,18.8631978 3.7552,18.5116422 C3.7552,18.1594194 4.0352,17.8739054 4.38053333,17.8739054 L19.4005333,17.8739054 C19.7465333,17.8739054 20.0258667,18.1594194 20.0258667,18.5116422 C20.0258667,18.8631978 19.7465333,19.1487118 19.4005333,19.1487118" id="Fill-10"></path>
                <path d="M19.4005333,22.9727972 L4.38053333,22.9727972 C4.0352,22.9727972 3.7552,22.6872833 3.7552,22.3350605 C3.7552,21.9835048 4.0352,21.6979909 4.38053333,21.6979909 L19.4005333,21.6979909 C19.7465333,21.6979909 20.0258667,21.9835048 20.0258667,22.3350605 C20.0258667,22.6872833 19.7465333,22.9727972 19.4005333,22.9727972" id="Fill-12"></path>
            </g>
        </g>
    </g>
</svg>