<?xml version="1.0" encoding="UTF-8" standalone="no"?>
<svg width="29px" height="30px" viewBox="0 0 29 30" version="1.1" xmlns="http://www.w3.org/2000/svg" xmlns:xlink="http://www.w3.org/1999/xlink">
    <!-- Generator: Sketch 44.1 (41455) - http://www.bohemiancoding.com/sketch -->
    <title>Recent</title>
    <desc>Created with Sketch.</desc>
    <defs></defs>
    <g id="Symbols" stroke="none" stroke-width="1" fill="none" fill-rule="evenodd">
        <g id="Tool-Bar" fill="#FFFFFF">
            <g id="Recent">
                <g id="Group-3" transform="translate(0.000000, 0.660818)">
                    <path d="M14.081,27.4100705 C7.007,27.4100705 1.25166667,21.5496971 1.25166667,14.3458072 C1.25166667,7.14191734 7.007,1.28087684 14.081,1.28087684 C21.155,1.28087684 26.9103333,7.14191734 26.9103333,14.3458072 C26.9103333,21.5496971 21.155,27.4100705 14.081,27.4100705 M14.081,0.00607050633 C6.317,0.00607050633 -0.000333333333,6.43880595 -0.000333333333,14.3458072 C-0.000333333333,22.2521414 6.317,28.6848768 14.081,28.6848768 C21.845,28.6848768 28.1623333,22.2521414 28.1623333,14.3458072 C28.1623333,6.43880595 21.845,0.00607050633 14.081,0.00607050633" id="Fill-1"></path>
                </g>
                <path d="M14.081,4.1723057 C14.2436667,4.1723057 14.4063333,4.10226139 14.5256667,3.98752215 C14.6376667,3.86611203 14.707,3.70667785 14.707,3.53456899 C14.707,3.36913101 14.6376667,3.20302595 14.5256667,3.08228291 C14.2936667,2.84680063 13.8743333,2.84680063 13.6363333,3.08228291 C13.5243333,3.20302595 13.4556667,3.36246013 13.4556667,3.53456899 C13.4556667,3.70667785 13.5243333,3.86611203 13.6363333,3.98752215 C13.7556667,4.10226139 13.9183333,4.1723057 14.081,4.1723057" id="Fill-4"></path>
                <path d="M13.6366667,26.0252613 C13.524,26.1460043 13.4553333,26.3121094 13.4553333,26.4782144 C13.4553333,26.6436524 13.524,26.8090904 13.6366667,26.9298334 C13.7553333,27.0445727 13.918,27.1152841 14.0813333,27.1152841 C14.244,27.1152841 14.4066667,27.0445727 14.5253333,26.9298334 C14.6373333,26.8090904 14.7066667,26.6436524 14.7066667,26.4782144 C14.7066667,26.3054385 14.6373333,26.1460043 14.5253333,26.0252613 C14.2873333,25.7891119 13.8746667,25.7891119 13.6366667,26.0252613" id="Fill-6"></path>
                <path d="M25.7902667,14.5538722 C25.5582667,14.3177228 25.1389333,14.3177228 24.9016,14.5538722 C24.7889333,14.6746152 24.7202667,14.8413873 24.7202667,15.0068253 C24.7202667,15.1722633 24.7889333,15.3377013 24.9016,15.4584443 C25.0202667,15.5731835 25.1829333,15.6438949 25.3456,15.6438949 C25.5082667,15.6438949 25.6716,15.5731835 25.7902667,15.4584443 C25.9022667,15.3377013 25.9716,15.1722633 25.9716,15.0068253 C25.9716,14.8413873 25.9022667,14.6746152 25.7902667,14.5538722" id="Fill-8"></path>
                <path d="M2.372,14.5538722 C2.25933333,14.6746152 2.19066667,14.8413873 2.19066667,15.0068253 C2.19066667,15.1722633 2.25933333,15.3377013 2.372,15.4584443 C2.49066667,15.5731835 2.65333333,15.6438949 2.81666667,15.6438949 C2.97866667,15.6438949 3.14133333,15.5731835 3.26066667,15.4584443 C3.37266667,15.3377013 3.442,15.1722633 3.442,15.0068253 C3.442,14.8413873 3.37266667,14.6746152 3.26066667,14.5538722 C3.02866667,14.3177228 2.60333333,14.3177228 2.372,14.5538722" id="Fill-10"></path>
                <path d="M21.6034667,6.44060709 C21.4841333,6.5626843 21.4221333,6.72812228 21.4221333,6.89356025 C21.4221333,7.05966532 21.4841333,7.22510329 21.6034667,7.34517924 C21.7221333,7.46725646 21.8788,7.53062987 22.0481333,7.53062987 C22.2101333,7.53062987 22.3734667,7.46725646 22.4921333,7.34517924 C22.6041333,7.22510329 22.6734667,7.05966532 22.6734667,6.89356025 C22.6734667,6.72812228 22.6041333,6.5626843 22.4921333,6.44060709 C22.2548,6.20445772 21.8348,6.2117957 21.6034667,6.44060709" id="Fill-12"></path>
                <path d="M5.67013333,22.6664034 C5.55746667,22.7878135 5.4888,22.9472477 5.4888,23.1193566 C5.4888,23.2854616 5.55746667,23.4508996 5.67013333,23.5709756 C5.7888,23.6863819 5.95146667,23.7564262 6.11413333,23.7564262 C6.2828,23.7564262 6.43946667,23.6863819 6.5588,23.5656389 C6.67746667,23.4508996 6.74013333,23.2854616 6.74013333,23.1193566 C6.74013333,22.9472477 6.67746667,22.7878135 6.5588,22.6664034 C6.3268,22.4302541 5.90746667,22.4302541 5.67013333,22.6664034" id="Fill-14"></path>
                <path d="M21.6034667,22.6664034 C21.4841333,22.7878135 21.4221333,22.9532515 21.4221333,23.1193566 C21.4221333,23.2854616 21.4841333,23.4508996 21.6034667,23.5709756 C21.7221333,23.6863819 21.8848,23.7564262 22.0481333,23.7564262 C22.2101333,23.7564262 22.3734667,23.6863819 22.4921333,23.5709756 C22.6041333,23.4508996 22.6734667,23.2854616 22.6734667,23.1193566 C22.6734667,22.9532515 22.6041333,22.7878135 22.4854667,22.6664034 C22.2548,22.4302541 21.8348,22.4302541 21.6034667,22.6664034" id="Fill-16"></path>
                <path d="M5.67013333,6.44060709 C5.55746667,6.5626843 5.4888,6.72812228 5.4888,6.89356025 C5.4888,7.05966532 5.55746667,7.22510329 5.67013333,7.34517924 C5.7888,7.46725646 5.95146667,7.53062987 6.11413333,7.53062987 C6.2768,7.53062987 6.43946667,7.46725646 6.5588,7.34517924 C6.67746667,7.22510329 6.74013333,7.05966532 6.74013333,6.89356025 C6.74013333,6.72812228 6.67746667,6.5626843 6.5588,6.44060709 C6.3208,6.20445772 5.90746667,6.20445772 5.67013333,6.44060709" id="Fill-18"></path>
                <path d="M14.7069333,14.7421246 L14.7069333,8.63359418 C14.7069333,8.2807043 14.4269333,7.99652456 14.0809333,7.99652456 C13.7349333,7.99652456 13.4556,8.2807043 13.4556,8.63359418 L13.4556,15.0062916 C13.4556,15.1750651 13.5209333,15.3378347 13.6382667,15.4565765 L19.8969333,21.829941 C20.0189333,21.9546866 20.1789333,22.0167258 20.3396,22.0167258 C20.4989333,22.0167258 20.6596,21.9546866 20.7816,21.829941 C21.0262667,21.581117 21.0262667,21.1775284 20.7816,20.9287043 L14.7069333,14.7421246 Z" id="Fill-20"></path>
            </g>
        </g>
    </g>
</svg>