<?xml version="1.0" encoding="UTF-8" standalone="no"?>
<svg width="44px" height="44px" viewBox="0 0 44 44" version="1.1" xmlns="http://www.w3.org/2000/svg" xmlns:xlink="http://www.w3.org/1999/xlink">
    <!-- Generator: Sketch 44.1 (41455) - http://www.bohemiancoding.com/sketch -->
    <title>Settings</title>
    <desc>Created with Sketch.</desc>
    <defs></defs>
    <g id="Web-App" stroke="none" stroke-width="1" fill="none" fill-rule="evenodd">
        <g id="Dashboard" transform="translate(-66.000000, -913.000000)" fill="#FFFFFF">
            <g id="Settings" transform="translate(66.000000, 913.000000)">
                <path d="M12.596,34.616 C12.955,34.616 13.307,34.72 13.616,34.916 C15.037,35.825 16.592,36.479 18.236,36.86 C19.106,37.062 19.714,37.827 19.714,38.721 L19.714,42.035 L23.47,42.035 L23.469,38.721 C23.469,37.827 24.076,37.062 24.946,36.86 C26.59,36.479 28.145,35.825 29.567,34.916 C30.303,34.446 31.3,34.556 31.904,35.171 L34.202,37.511 L36.858,34.808 L34.559,32.468 C33.937,31.837 33.835,30.859 34.31,30.089 C35.201,28.643 35.845,27.061 36.22,25.387 C36.417,24.502 37.169,23.884 38.048,23.884 L41.304,23.884 L41.304,20.062 L38.048,20.062 C37.169,20.062 36.417,19.444 36.219,18.558 C35.845,16.885 35.201,15.303 34.31,13.856 C33.835,13.088 33.937,12.109 34.559,11.477 L36.858,9.138 L34.203,6.435 L31.903,8.776 C31.301,9.39 30.302,9.499 29.567,9.03 C28.145,8.121 26.59,7.467 24.946,7.086 C24.076,6.885 23.469,6.119 23.469,5.225 L23.469,1.911 L19.714,1.911 L19.714,5.225 C19.714,6.119 19.106,6.885 18.236,7.086 C16.592,7.467 15.037,8.121 13.616,9.03 C12.881,9.5 11.883,9.391 11.278,8.775 L8.979,6.435 L6.324,9.138 L8.623,11.478 C9.244,12.109 9.347,13.088 8.872,13.857 C7.98,15.303 7.338,16.885 6.962,18.559 C6.764,19.444 6.013,20.062 5.134,20.062 L1.877,20.062 L1.877,23.884 L5.134,23.884 C6.013,23.884 6.764,24.502 6.963,25.388 C7.338,27.061 7.98,28.643 8.872,30.09 C9.347,30.859 9.244,31.837 8.623,32.469 L6.324,34.808 L8.978,37.511 L11.279,35.17 C11.629,34.813 12.097,34.616 12.596,34.616 M23.469,43.946 L19.714,43.946 C18.679,43.946 17.836,43.089 17.836,42.035 L17.836,38.721 C15.969,38.295 14.219,37.558 12.616,36.534 L10.307,38.861 C9.598,39.583 8.362,39.584 7.651,38.861 L4.996,36.159 C4.641,35.798 4.446,35.319 4.446,34.808 C4.446,34.298 4.641,33.818 4.996,33.457 L7.295,31.117 C6.278,29.477 5.554,27.696 5.132,25.812 L1.877,25.794 C0.843,25.794 0,24.937 0,23.884 L0,20.062 C0,19.009 0.843,18.152 1.877,18.152 L5.134,18.152 C5.554,16.25 6.278,14.469 7.283,12.84 L4.996,10.489 C4.641,10.128 4.446,9.648 4.446,9.138 C4.446,8.628 4.641,8.148 4.996,7.787 L7.651,5.085 C8.361,4.361 9.597,4.363 10.307,5.085 L12.606,7.425 C14.219,6.388 15.969,5.651 17.82,5.223 L17.836,1.911 C17.836,0.857 18.679,0 19.714,0 L23.469,0 C24.503,0 25.346,0.857 25.346,1.911 L25.346,5.225 C27.213,5.651 28.963,6.388 30.566,7.412 L32.875,5.085 C33.584,4.364 34.82,4.362 35.531,5.085 L38.186,7.787 C38.54,8.148 38.736,8.628 38.736,9.138 C38.736,9.648 38.54,10.128 38.186,10.489 L35.887,12.828 C36.904,14.469 37.627,16.25 38.05,18.134 L41.304,18.152 C42.339,18.152 43.182,19.009 43.182,20.062 L43.182,23.884 C43.182,24.937 42.339,25.794 41.304,25.794 L38.048,25.794 C37.627,27.696 36.904,29.477 35.899,31.106 L38.186,33.457 C38.54,33.818 38.736,34.298 38.736,34.808 C38.736,35.319 38.54,35.798 38.186,36.159 L35.531,38.861 C34.82,39.583 33.584,39.582 32.875,38.861 L30.576,36.521 C28.963,37.558 27.213,38.295 25.363,38.723 L25.346,42.035 C25.346,43.089 24.503,43.946 23.469,43.946" id="Fill-1"></path>
                <path d="M21.5911,15.2854 C17.9681,15.2854 15.0201,18.2854 15.0201,21.9724 C15.0201,25.6604 17.9681,28.6604 21.5911,28.6604 C25.2141,28.6604 28.1621,25.6604 28.1621,21.9724 C28.1621,18.2854 25.2141,15.2854 21.5911,15.2854 M21.5911,30.5714 C16.9321,30.5714 13.1421,26.7134 13.1421,21.9724 C13.1421,17.2324 16.9321,13.3744 21.5911,13.3744 C26.2501,13.3744 30.0391,17.2324 30.0391,21.9724 C30.0391,26.7134 26.2501,30.5714 21.5911,30.5714" id="Fill-3"></path>
            </g>
        </g>
    </g>
</svg>